<mxfile host="app.diagrams.net" agent="Mozilla/5.0 (Macintosh; Intel Mac OS X 10_15_7) AppleWebKit/537.36 (KHTML, like Gecko) Chrome/119.0.0.0 Safari/537.36 Edg/119.0.0.0" version="24.7.7">
  <diagram name="Page-1" id="MFGIRq-y1SpLl9ntuq1d">
    <mxGraphModel dx="984" dy="668" grid="1" gridSize="10" guides="1" tooltips="1" connect="1" arrows="1" fold="1" page="1" pageScale="1" pageWidth="827" pageHeight="1169" math="0" shadow="0">
      <root>
        <mxCell id="0" />
        <mxCell id="1" parent="0" />
        <mxCell id="cyr4UhlF65TjO6xTyTL8-1" value="Client" style="sketch=0;outlineConnect=0;fontColor=#232F3E;gradientColor=none;strokeColor=#232F3E;fillColor=#ffffff;dashed=0;verticalLabelPosition=bottom;verticalAlign=top;align=center;html=1;fontSize=12;fontStyle=0;aspect=fixed;shape=mxgraph.aws4.resourceIcon;resIcon=mxgraph.aws4.client;" vertex="1" parent="1">
          <mxGeometry x="70" y="160" width="50" height="50" as="geometry" />
        </mxCell>
        <mxCell id="cyr4UhlF65TjO6xTyTL8-3" value="Region" style="points=[[0,0],[0.25,0],[0.5,0],[0.75,0],[1,0],[1,0.25],[1,0.5],[1,0.75],[1,1],[0.75,1],[0.5,1],[0.25,1],[0,1],[0,0.75],[0,0.5],[0,0.25]];outlineConnect=0;gradientColor=none;html=1;whiteSpace=wrap;fontSize=12;fontStyle=0;container=1;pointerEvents=0;collapsible=0;recursiveResize=0;shape=mxgraph.aws4.group;grIcon=mxgraph.aws4.group_region;strokeColor=#00A4A6;fillColor=none;verticalAlign=top;align=left;spacingLeft=30;fontColor=#147EBA;dashed=1;" vertex="1" parent="1">
          <mxGeometry x="360" y="90" width="280" height="390" as="geometry" />
        </mxCell>
        <mxCell id="cyr4UhlF65TjO6xTyTL8-2" value="AWS Cloud" style="sketch=0;outlineConnect=0;gradientColor=none;html=1;whiteSpace=wrap;fontSize=12;fontStyle=0;shape=mxgraph.aws4.group;grIcon=mxgraph.aws4.group_aws_cloud;strokeColor=#AAB7B8;fillColor=none;verticalAlign=top;align=left;spacingLeft=30;fontColor=#AAB7B8;dashed=0;" vertex="1" parent="cyr4UhlF65TjO6xTyTL8-3">
          <mxGeometry x="-26.340000000000003" y="-50" width="480" height="510" as="geometry" />
        </mxCell>
        <mxCell id="cyr4UhlF65TjO6xTyTL8-4" value="ECR" style="outlineConnect=0;dashed=0;verticalLabelPosition=bottom;verticalAlign=top;align=center;html=1;shape=mxgraph.aws3.ecr_registry;fillColor=#F58534;gradientColor=none;" vertex="1" parent="cyr4UhlF65TjO6xTyTL8-3">
          <mxGeometry x="80" y="70" width="47" height="50" as="geometry" />
        </mxCell>
        <mxCell id="cyr4UhlF65TjO6xTyTL8-9" value="" style="image;aspect=fixed;html=1;points=[];align=center;fontSize=12;image=img/lib/azure2/general/Search.svg;" vertex="1" parent="cyr4UhlF65TjO6xTyTL8-3">
          <mxGeometry x="190" y="100" width="24" height="24.38" as="geometry" />
        </mxCell>
        <mxCell id="cyr4UhlF65TjO6xTyTL8-7" value="AWS Inspector" style="sketch=0;points=[[0,0,0],[0.25,0,0],[0.5,0,0],[0.75,0,0],[1,0,0],[0,1,0],[0.25,1,0],[0.5,1,0],[0.75,1,0],[1,1,0],[0,0.25,0],[0,0.5,0],[0,0.75,0],[1,0.25,0],[1,0.5,0],[1,0.75,0]];outlineConnect=0;fontColor=#232F3E;fillColor=#DD344C;strokeColor=#ffffff;dashed=0;verticalLabelPosition=bottom;verticalAlign=top;align=center;html=1;fontSize=12;fontStyle=0;aspect=fixed;shape=mxgraph.aws4.resourceIcon;resIcon=mxgraph.aws4.inspector;" vertex="1" parent="cyr4UhlF65TjO6xTyTL8-3">
          <mxGeometry x="310" y="71" width="48" height="48" as="geometry" />
        </mxCell>
        <mxCell id="cyr4UhlF65TjO6xTyTL8-8" style="edgeStyle=orthogonalEdgeStyle;rounded=0;orthogonalLoop=1;jettySize=auto;html=1;" edge="1" parent="cyr4UhlF65TjO6xTyTL8-3" source="cyr4UhlF65TjO6xTyTL8-7" target="cyr4UhlF65TjO6xTyTL8-4">
          <mxGeometry relative="1" as="geometry" />
        </mxCell>
        <mxCell id="cyr4UhlF65TjO6xTyTL8-16" value="EventBridge" style="sketch=0;points=[[0,0,0],[0.25,0,0],[0.5,0,0],[0.75,0,0],[1,0,0],[0,1,0],[0.25,1,0],[0.5,1,0],[0.75,1,0],[1,1,0],[0,0.25,0],[0,0.5,0],[0,0.75,0],[1,0.25,0],[1,0.5,0],[1,0.75,0]];outlineConnect=0;fontColor=#232F3E;fillColor=#E7157B;strokeColor=#ffffff;dashed=0;verticalLabelPosition=bottom;verticalAlign=top;align=center;html=1;fontSize=12;fontStyle=0;aspect=fixed;shape=mxgraph.aws4.resourceIcon;resIcon=mxgraph.aws4.eventbridge;" vertex="1" parent="cyr4UhlF65TjO6xTyTL8-3">
          <mxGeometry x="178" y="310" width="48" height="48" as="geometry" />
        </mxCell>
        <mxCell id="cyr4UhlF65TjO6xTyTL8-17" value="Lambda" style="sketch=0;points=[[0,0,0],[0.25,0,0],[0.5,0,0],[0.75,0,0],[1,0,0],[0,1,0],[0.25,1,0],[0.5,1,0],[0.75,1,0],[1,1,0],[0,0.25,0],[0,0.5,0],[0,0.75,0],[1,0.25,0],[1,0.5,0],[1,0.75,0]];outlineConnect=0;fontColor=#232F3E;fillColor=#ED7100;strokeColor=#ffffff;dashed=0;verticalLabelPosition=bottom;verticalAlign=top;align=center;html=1;fontSize=12;fontStyle=0;aspect=fixed;shape=mxgraph.aws4.resourceIcon;resIcon=mxgraph.aws4.lambda;" vertex="1" parent="cyr4UhlF65TjO6xTyTL8-3">
          <mxGeometry x="40" y="309" width="50" height="50" as="geometry" />
        </mxCell>
        <mxCell id="cyr4UhlF65TjO6xTyTL8-10" value="Security Hub" style="sketch=0;points=[[0,0,0],[0.25,0,0],[0.5,0,0],[0.75,0,0],[1,0,0],[0,1,0],[0.25,1,0],[0.5,1,0],[0.75,1,0],[1,1,0],[0,0.25,0],[0,0.5,0],[0,0.75,0],[1,0.25,0],[1,0.5,0],[1,0.75,0]];outlineConnect=0;fontColor=#232F3E;fillColor=#DD344C;strokeColor=#ffffff;dashed=0;verticalLabelPosition=bottom;verticalAlign=top;align=center;html=1;fontSize=12;fontStyle=0;aspect=fixed;shape=mxgraph.aws4.resourceIcon;resIcon=mxgraph.aws4.security_hub;" vertex="1" parent="cyr4UhlF65TjO6xTyTL8-3">
          <mxGeometry x="310" y="310" width="48" height="48" as="geometry" />
        </mxCell>
        <mxCell id="cyr4UhlF65TjO6xTyTL8-11" style="edgeStyle=orthogonalEdgeStyle;rounded=0;orthogonalLoop=1;jettySize=auto;html=1;" edge="1" parent="cyr4UhlF65TjO6xTyTL8-3" source="cyr4UhlF65TjO6xTyTL8-7" target="cyr4UhlF65TjO6xTyTL8-10">
          <mxGeometry relative="1" as="geometry" />
        </mxCell>
        <mxCell id="cyr4UhlF65TjO6xTyTL8-18" style="edgeStyle=orthogonalEdgeStyle;rounded=0;orthogonalLoop=1;jettySize=auto;html=1;entryX=1;entryY=0.5;entryDx=0;entryDy=0;entryPerimeter=0;" edge="1" parent="cyr4UhlF65TjO6xTyTL8-3" source="cyr4UhlF65TjO6xTyTL8-10" target="cyr4UhlF65TjO6xTyTL8-16">
          <mxGeometry relative="1" as="geometry" />
        </mxCell>
        <mxCell id="cyr4UhlF65TjO6xTyTL8-19" style="edgeStyle=orthogonalEdgeStyle;rounded=0;orthogonalLoop=1;jettySize=auto;html=1;entryX=1;entryY=0.5;entryDx=0;entryDy=0;entryPerimeter=0;" edge="1" parent="cyr4UhlF65TjO6xTyTL8-3" source="cyr4UhlF65TjO6xTyTL8-16" target="cyr4UhlF65TjO6xTyTL8-17">
          <mxGeometry relative="1" as="geometry" />
        </mxCell>
        <mxCell id="cyr4UhlF65TjO6xTyTL8-29" value="2" style="ellipse;whiteSpace=wrap;html=1;aspect=fixed;rotation=0;gradientColor=#223548;strokeColor=none;gradientDirection=east;fillColor=#5b738b;rounded=0;pointerEvents=0;fontFamily=Helvetica;fontSize=16;fontColor=#FFFFFF;spacingTop=4;spacingBottom=4;spacingLeft=4;spacingRight=4;points=[];fontStyle=1" vertex="1" parent="cyr4UhlF65TjO6xTyTL8-3">
          <mxGeometry x="240" y="100" width="20" height="20" as="geometry" />
        </mxCell>
        <mxCell id="cyr4UhlF65TjO6xTyTL8-32" value="3" style="ellipse;whiteSpace=wrap;html=1;aspect=fixed;rotation=0;gradientColor=#223548;strokeColor=none;gradientDirection=east;fillColor=#5b738b;rounded=0;pointerEvents=0;fontFamily=Helvetica;fontSize=16;fontColor=#FFFFFF;spacingTop=4;spacingBottom=4;spacingLeft=4;spacingRight=4;points=[];fontStyle=1" vertex="1" parent="cyr4UhlF65TjO6xTyTL8-3">
          <mxGeometry x="340" y="230" width="20" height="20" as="geometry" />
        </mxCell>
        <mxCell id="cyr4UhlF65TjO6xTyTL8-34" value="5" style="ellipse;whiteSpace=wrap;html=1;aspect=fixed;rotation=0;gradientColor=#223548;strokeColor=none;gradientDirection=east;fillColor=#5b738b;rounded=0;pointerEvents=0;fontFamily=Helvetica;fontSize=16;fontColor=#FFFFFF;spacingTop=4;spacingBottom=4;spacingLeft=4;spacingRight=4;points=[];fontStyle=1" vertex="1" parent="cyr4UhlF65TjO6xTyTL8-3">
          <mxGeometry x="120" y="338" width="20" height="20" as="geometry" />
        </mxCell>
        <mxCell id="cyr4UhlF65TjO6xTyTL8-36" value="4" style="ellipse;whiteSpace=wrap;html=1;aspect=fixed;rotation=0;gradientColor=#223548;strokeColor=none;gradientDirection=east;fillColor=#5b738b;rounded=0;pointerEvents=0;fontFamily=Helvetica;fontSize=16;fontColor=#FFFFFF;spacingTop=4;spacingBottom=4;spacingLeft=4;spacingRight=4;points=[];fontStyle=1" vertex="1" parent="cyr4UhlF65TjO6xTyTL8-3">
          <mxGeometry x="270" y="338" width="20" height="20" as="geometry" />
        </mxCell>
        <mxCell id="cyr4UhlF65TjO6xTyTL8-5" style="edgeStyle=orthogonalEdgeStyle;rounded=0;orthogonalLoop=1;jettySize=auto;html=1;entryX=0;entryY=0.5;entryDx=0;entryDy=0;entryPerimeter=0;" edge="1" parent="1" source="cyr4UhlF65TjO6xTyTL8-1" target="cyr4UhlF65TjO6xTyTL8-4">
          <mxGeometry relative="1" as="geometry" />
        </mxCell>
        <mxCell id="cyr4UhlF65TjO6xTyTL8-6" value="" style="sketch=0;outlineConnect=0;fontColor=#232F3E;gradientColor=none;fillColor=#ED7100;strokeColor=none;dashed=0;verticalLabelPosition=bottom;verticalAlign=top;align=center;html=1;fontSize=12;fontStyle=0;aspect=fixed;pointerEvents=1;shape=mxgraph.aws4.container_registry_image;" vertex="1" parent="1">
          <mxGeometry x="190" y="192" width="18" height="18" as="geometry" />
        </mxCell>
        <mxCell id="cyr4UhlF65TjO6xTyTL8-27" value="1" style="ellipse;whiteSpace=wrap;html=1;aspect=fixed;rotation=0;gradientColor=#223548;strokeColor=none;gradientDirection=east;fillColor=#5b738b;rounded=0;pointerEvents=0;fontFamily=Helvetica;fontSize=16;fontColor=#FFFFFF;spacingTop=4;spacingBottom=4;spacingLeft=4;spacingRight=4;points=[];fontStyle=1" vertex="1" parent="1">
          <mxGeometry x="30" y="310" width="20" height="20" as="geometry" />
        </mxCell>
        <mxCell id="cyr4UhlF65TjO6xTyTL8-28" value="1" style="ellipse;whiteSpace=wrap;html=1;aspect=fixed;rotation=0;gradientColor=#223548;strokeColor=none;gradientDirection=east;fillColor=#5b738b;rounded=0;pointerEvents=0;fontFamily=Helvetica;fontSize=16;fontColor=#FFFFFF;spacingTop=4;spacingBottom=4;spacingLeft=4;spacingRight=4;points=[];fontStyle=1" vertex="1" parent="1">
          <mxGeometry x="240" y="190" width="20" height="20" as="geometry" />
        </mxCell>
        <mxCell id="cyr4UhlF65TjO6xTyTL8-30" value="2" style="ellipse;whiteSpace=wrap;html=1;aspect=fixed;rotation=0;gradientColor=#223548;strokeColor=none;gradientDirection=east;fillColor=#5b738b;rounded=0;pointerEvents=0;fontFamily=Helvetica;fontSize=16;fontColor=#FFFFFF;spacingTop=4;spacingBottom=4;spacingLeft=4;spacingRight=4;points=[];fontStyle=1" vertex="1" parent="1">
          <mxGeometry x="30" y="362" width="20" height="20" as="geometry" />
        </mxCell>
        <mxCell id="cyr4UhlF65TjO6xTyTL8-31" value="3" style="ellipse;whiteSpace=wrap;html=1;aspect=fixed;rotation=0;gradientColor=#223548;strokeColor=none;gradientDirection=east;fillColor=#5b738b;rounded=0;pointerEvents=0;fontFamily=Helvetica;fontSize=16;fontColor=#FFFFFF;spacingTop=4;spacingBottom=4;spacingLeft=4;spacingRight=4;points=[];fontStyle=1" vertex="1" parent="1">
          <mxGeometry x="30" y="418" width="20" height="20" as="geometry" />
        </mxCell>
        <mxCell id="cyr4UhlF65TjO6xTyTL8-33" value="4" style="ellipse;whiteSpace=wrap;html=1;aspect=fixed;rotation=0;gradientColor=#223548;strokeColor=none;gradientDirection=east;fillColor=#5b738b;rounded=0;pointerEvents=0;fontFamily=Helvetica;fontSize=16;fontColor=#FFFFFF;spacingTop=4;spacingBottom=4;spacingLeft=4;spacingRight=4;points=[];fontStyle=1" vertex="1" parent="1">
          <mxGeometry x="30" y="480" width="20" height="20" as="geometry" />
        </mxCell>
        <mxCell id="cyr4UhlF65TjO6xTyTL8-35" value="5" style="ellipse;whiteSpace=wrap;html=1;aspect=fixed;rotation=0;gradientColor=#223548;strokeColor=none;gradientDirection=east;fillColor=#5b738b;rounded=0;pointerEvents=0;fontFamily=Helvetica;fontSize=16;fontColor=#FFFFFF;spacingTop=4;spacingBottom=4;spacingLeft=4;spacingRight=4;points=[];fontStyle=1" vertex="1" parent="1">
          <mxGeometry x="30" y="540" width="20" height="20" as="geometry" />
        </mxCell>
        <mxCell id="cyr4UhlF65TjO6xTyTL8-38" value="Client Pushes an Image" style="text;html=1;align=center;verticalAlign=middle;whiteSpace=wrap;rounded=0;" vertex="1" parent="1">
          <mxGeometry x="60" y="310" width="80" height="25" as="geometry" />
        </mxCell>
        <mxCell id="cyr4UhlF65TjO6xTyTL8-39" value="Inspector triggers image scaning" style="text;html=1;align=center;verticalAlign=middle;whiteSpace=wrap;rounded=0;" vertex="1" parent="1">
          <mxGeometry x="50" y="362" width="110" height="25" as="geometry" />
        </mxCell>
        <mxCell id="cyr4UhlF65TjO6xTyTL8-40" value="Inspector pushes vulnerabilities to SecurityHub" style="text;html=1;align=center;verticalAlign=middle;whiteSpace=wrap;rounded=0;" vertex="1" parent="1">
          <mxGeometry x="35" y="418" width="140" height="27" as="geometry" />
        </mxCell>
        <mxCell id="cyr4UhlF65TjO6xTyTL8-41" value="EventBridge receives an event from SecurityHub" style="text;html=1;align=center;verticalAlign=middle;whiteSpace=wrap;rounded=0;" vertex="1" parent="1">
          <mxGeometry x="50" y="475" width="120" height="35" as="geometry" />
        </mxCell>
        <mxCell id="cyr4UhlF65TjO6xTyTL8-42" value="Custom remidiation performed with AWS Lambda" style="text;html=1;align=center;verticalAlign=middle;whiteSpace=wrap;rounded=0;" vertex="1" parent="1">
          <mxGeometry x="50" y="550" width="120" height="20" as="geometry" />
        </mxCell>
      </root>
    </mxGraphModel>
  </diagram>
</mxfile>
